<?xml version="1.0" encoding="UTF-8" standalone="no"?>
<svg
   xmlns:dc="http://purl.org/dc/elements/1.1/"
   xmlns:cc="http://creativecommons.org/ns#"
   xmlns:rdf="http://www.w3.org/1999/02/22-rdf-syntax-ns#"
   xmlns:svg="http://www.w3.org/2000/svg"
   xmlns="http://www.w3.org/2000/svg"
   xmlns:sodipodi="http://sodipodi.sourceforge.net/DTD/sodipodi-0.dtd"
   xmlns:inkscape="http://www.inkscape.org/namespaces/inkscape"
   version="1.1"
   x="0px"
   y="0px"
   viewBox="0 0 100 100"
   enable-background="new 0 0 100 100"
   xml:space="preserve"
   id="svg3011"
   inkscape:version="0.48.4 r9939"
   width="100%"
   height="100%"
   sodipodi:docname="notification_on.svg"><metadata
     id="metadata3023"><rdf:RDF><cc:Work
         rdf:about=""><dc:format>image/svg+xml</dc:format><dc:type
           rdf:resource="http://purl.org/dc/dcmitype/StillImage" /><dc:title></dc:title></cc:Work></rdf:RDF></metadata><defs
     id="defs3021" /><sodipodi:namedview
     pagecolor="#ffffff"
     bordercolor="#666666"
     borderopacity="1"
     objecttolerance="10"
     gridtolerance="10"
     guidetolerance="10"
     inkscape:pageopacity="0"
     inkscape:pageshadow="2"
     inkscape:window-width="1600"
     inkscape:window-height="847"
     id="namedview3019"
     showgrid="false"
     inkscape:zoom="3.776"
     inkscape:cx="50"
     inkscape:cy="62.5"
     inkscape:window-x="-4"
     inkscape:window-y="-4"
     inkscape:window-maximized="1"
     inkscape:current-layer="svg3011" /><path
     id="path3013"
     d="m 81.820375,18.18 c -17.574,-17.574 -46.066,-17.574 -63.64,0 -17.574,17.574 -17.574,46.066 0,63.64 17.574,17.574 46.066,17.574 63.64,0 17.573,-17.574 17.573,-46.066 0,-63.64 z M 20.758244,59.745439 c 0,2.151182 -1.743677,3.893473 -3.893473,3.893473 h -1.952974 c -2.151182,0 -3.893473,-1.743678 -3.893473,-3.893473 V 40.25451 c 0,-2.151182 1.743677,-3.893474 3.893473,-3.893474 h 1.952974 c 2.151182,0 3.893473,1.743678 3.893473,3.893474 v 19.490929 z m 27.293122,10.193165 c 0,3.00916 -3.264197,4.883128 -5.86308,3.366766 L 26.564495,64.191954 C 25.36693,63.493374 24.630926,62.211259 24.630926,60.825188 V 39.17476 c 0,-1.386071 0.736004,-2.668186 1.933569,-3.366766 l 15.623791,-9.113416 c 2.598883,-1.516362 5.86308,0.358992 5.86308,3.366766 v 39.87726 z" /></svg>