<svg xmlns="http://www.w3.org/2000/svg" xmlns:xlink="http://www.w3.org/1999/xlink" version="1.1" x="0px" y="0px" viewBox="0 0 100 125" enable-background="new 0 0 100 100" xml:space="preserve"><path fill="#000000" d="M81.82,18.18c-17.574-17.574-46.066-17.574-63.64,0c-17.574,17.574-17.574,46.066,0,63.64  c17.574,17.574,46.066,17.574,63.64,0C99.393,64.246,99.393,35.754,81.82,18.18z M28.903,57.031c0,1.552-1.258,2.809-2.809,2.809  h-1.409c-1.552,0-2.809-1.258-2.809-2.809V42.969c0-1.552,1.258-2.809,2.809-2.809h1.409c1.552,0,2.809,1.258,2.809,2.809V57.031z   M48.594,64.385c0,2.171-2.355,3.523-4.23,2.429l-11.272-6.575c-0.864-0.504-1.395-1.429-1.395-2.429V42.19  c0-1,0.531-1.925,1.395-2.429l11.272-6.575c1.875-1.094,4.23,0.259,4.23,2.429V64.385z M73.906,54.44h-4.219v4.219  c0,2.33-1.889,4.219-4.219,4.219c-2.33,0-4.219-1.889-4.219-4.219v0V54.44h-4.219h0c-1.08,0-2.159-0.412-2.983-1.236  c-1.648-1.647-1.648-4.319,0-5.966c0.824-0.824,1.903-1.236,2.983-1.236v0h4.219v-4.219c0-1.08,0.412-2.159,1.236-2.983  c1.648-1.648,4.319-1.648,5.966,0c0.824,0.824,1.236,1.903,1.236,2.983v4.219h4.219c2.33,0,4.219,1.889,4.219,4.219  C78.125,52.552,76.236,54.44,73.906,54.44z"/><text x="0" y="115" fill="#000000" font-size="5px" font-weight="bold" font-family="'Helvetica Neue', Helvetica, Arial-Unicode, Arial, Sans-serif">Created by Danny Lelieveld</text><text x="0" y="120" fill="#000000" font-size="5px" font-weight="bold" font-family="'Helvetica Neue', Helvetica, Arial-Unicode, Arial, Sans-serif">from the Noun Project</text></svg>